<svg version="1.1" xmlns="https://www.w3.org/2000/svg" xmlns:xlink="https://www.w3.org/1999/xlink" x="0" y="0"
    style="width:{{info.w}};height:{{info.h}}" xml:space="preserve">
    <g>
        <rect style="fill:{{info.bg}};width:{{info.w}};height:{{info.h}}" x="0" y="0" id="svg_14" fill-rule="nonzero"/>
        <g>
            <path style="fill:{{info.path}}" d="m28.314966,37.547394c0,-0.617301 -0.500706,-1.117401 -1.118511,-1.117401l-3.903187,0c-0.617103,0 -1.11791,0.5001 -1.11791,1.117401l0,3.902683c0,0.618108 0.500807,1.11841 1.11791,1.11841l3.903187,0c0.617805,0 1.118511,-0.500302 1.118511,-1.11841l0,-3.902683l0,0z"/>
            <path style="fill:{{info.path}}" d="m38.069551,37.547394c0,-0.617301 -0.500807,-1.117401 -1.117401,-1.117401l-3.903691,0c-0.617103,0 -1.11791,0.5001 -1.11791,1.117401l0,3.902683c0,0.618108 0.500807,1.11841 1.11791,1.11841l3.903691,0c0.616595,0 1.117401,-0.500302 1.117401,-1.11841l0,-3.902683z"/>
            <path style="fill:{{info.path}}" d="m47.824642,37.547394c0,-0.617301 -0.500807,-1.117401 -1.11791,-1.117401l-3.903183,0c-0.61781,0 -1.118515,0.5001 -1.118515,1.117401l0,3.902683c0,0.618108 0.500706,1.11841 1.118515,1.11841l3.903183,0c0.617103,0 1.11791,-0.500302 1.11791,-1.11841l0,-3.902683z"/>
            <path style="fill:{{info.path}}" d="m28.314966,47.302989c0,-0.618314 -0.500706,-1.118011 -1.118511,-1.118011l-3.903187,0c-0.617103,0 -1.11791,0.499697 -1.11791,1.118011l0,3.901976c0,0.617704 0.500807,1.117906 1.11791,1.117906l3.903187,0c0.617805,0 1.118511,-0.500302 1.118511,-1.117906l0,-3.901976l0,0z"/>
            <path style="fill:{{info.path}}" d="m38.069551,47.302989c0,-0.618314 -0.500807,-1.118011 -1.117401,-1.118011l-3.903691,0c-0.617103,0 -1.11791,0.499697 -1.11791,1.118011l0,3.901976c0,0.617704 0.500807,1.117906 1.11791,1.117906l3.903691,0c0.616595,0 1.117401,-0.500302 1.117401,-1.117906l0,-3.901976z"/>
            <path style="fill:{{info.path}}" d="m47.824642,47.302989c0,-0.618314 -0.500807,-1.118011 -1.117401,-1.118011l-3.903691,0c-0.61781,0 -1.118515,0.499697 -1.118515,1.118011l0,3.901976c0,0.617704 0.500706,1.117906 1.118515,1.117906l3.903691,0c0.616595,0 1.117401,-0.500302 1.117401,-1.117906l0,-3.901976l0,0z"/>
            <path style="fill:{{info.path}}" d="m54.803942,15.847737l0,5.961029c0,2.694323 -2.185744,4.865532 -4.879668,4.865532l-3.078232,0c-2.694121,0 -4.90884,-2.171209 -4.90884,-4.865532l0,-5.982433l-13.874405,0l0,5.982433c0,2.694323 -2.214618,4.865532 -4.908335,4.865532l-3.078837,0c-2.693823,0 -4.879466,-2.171209 -4.879466,-4.865532l0,-5.961029c-2.354428,0.070967 -4.289113,2.019179 -4.289113,4.413783l0,34.934458c0,2.439628 1.977388,4.443262 4.417016,4.443262l39.351878,0c2.435996,0 4.417016,-2.007775 4.417016,-4.443262l0,-34.934458c0,-2.394605 -1.934584,-4.342817 -4.289013,-4.413783zm-1.429738,37.172792c0,1.054312 -0.854838,1.909649 -1.909549,1.909649l-33.013401,0c-1.054711,0 -1.909549,-0.855338 -1.909549,-1.909649l0,-18.044906c0,-1.054715 0.854732,-1.910053 1.909549,-1.910053l33.0133,0c1.054711,0 1.909549,0.855338 1.909549,1.910053l0.000101,18.044906l0,0z"/>
            <path style="fill:{{info.path}}" d="m20.064822,23.478558l3.044819,0c0.924186,0 1.673529,-0.748234 1.673529,-1.67242l0,-9.772349c0,-0.924291 -0.749344,-1.673029 -1.673529,-1.673029l-3.044819,0c-0.924287,0 -1.673529,0.748738 -1.673529,1.673029l0,9.772349c0,0.924186 0.749243,1.67242 1.673529,1.67242z"/>
            <path style="fill:{{info.path}}" d="m46.806874,23.478558l3.044819,0c0.923581,0 1.672924,-0.748234 1.672924,-1.67242l0,-9.772349c0.000101,-0.924291 -0.749243,-1.673029 -1.672924,-1.673029l-3.044819,0c-0.924085,0 -1.673429,0.748738 -1.673429,1.673029l0,9.772349c0,0.924186 0.749344,1.67242 1.673429,1.67242z"/>
        </g>
    </g>
    <g>
        <rect fill="none" y="0" x="0" height="100%" width="100%"/>
    </g>
    <g>
        <rect fill="none" height="72" width="72" y="-1" x="-1"/>
    </g>
</svg>